<?xml version="1.0" encoding="iso-8859-1"?>
<svg fill="#5A5A5A" height="25px" width="25px" version="1.1" id="Capa_1" xmlns="http://www.w3.org/2000/svg" xmlns:xlink="http://www.w3.org/1999/xlink" 
	 viewBox="0 0 180.146 180.146" xml:space="preserve">
<g>
	<path d="M116.707,104.542V26.631C116.707,11.947,104.758,0,90.07,0C75.386,0,63.438,11.947,63.438,26.631v77.912
		c-10.013,8.046-15.879,20.134-15.879,33.09c0,23.442,19.07,42.514,42.511,42.514c23.443,0,42.517-19.072,42.517-42.514
		C132.587,124.676,126.72,112.588,116.707,104.542z M90.07,165.146c-15.17,0-27.511-12.343-27.511-27.514
		c0-9.282,4.669-17.882,12.489-23.007c2.115-1.386,3.39-3.744,3.39-6.273V26.631C78.438,20.218,83.656,15,90.07,15
		c6.417,0,11.637,5.218,11.637,11.631v81.722c0,2.529,1.274,4.887,3.39,6.273c7.821,5.124,12.49,13.725,12.49,23.007
		C117.587,152.804,105.243,165.146,90.07,165.146z"/>
	<path d="M95.07,120.859V60.268c0-2.761-2.238-5-5-5c-2.762,0-5,2.239-5,5v60.591c-7.229,2.152-12.505,8.84-12.505,16.773
		c0,9.667,7.838,17.507,17.505,17.507c9.673,0,17.51-7.84,17.51-17.507C107.58,129.699,102.304,123.011,95.07,120.859z"/>
</g>
</svg>